<svg id="Capa_1" data-name="Capa 1" xmlns="http://www.w3.org/2000/svg" viewBox="0 0 239.59 38.4"><defs><style>.cls-1{fill:#fff;}</style></defs><path class="cls-1" d="M144.62,133c-7.72,0-15.78,1.74-23.92,4a4.13,4.13,0,0,0-2.57,1.72,6.51,6.51,0,0,0-.82,2.41,64.06,64.06,0,0,0-.53,13.59,6.89,6.89,0,0,0,.71,3.2,3.61,3.61,0,0,0,2.57,1.48c1.4.21,2.81.39,4.23.53l-.31,8.7a1.89,1.89,0,0,0,.71,1.6,2.24,2.24,0,0,0,1.22.44,2.43,2.43,0,0,0,2.37-1.26,31.34,31.34,0,0,1,6.32-8.89,199.43,199.43,0,0,0,20.48-.75,5.21,5.21,0,0,0,4.67-3.74c1.36-4.23,1.57-9.46,1.71-14.74a6.71,6.71,0,0,0-2-5.23,10.5,10.5,0,0,0-4-1.72A52.65,52.65,0,0,0,144.62,133Zm10.29,3.32a9.23,9.23,0,0,1,3.31,1.33,4.22,4.22,0,0,1,1.2,3.68c-.14,5.12-.38,10.09-1.54,13.86a3.39,3.39,0,0,1-3,2.55,190.58,190.58,0,0,1-20.7.74,1.06,1.06,0,0,0-.77.3,34,34,0,0,0-6.92,9.68.36.36,0,0,1-.31.17.14.14,0,0,1-.14-.14l.31-9.43a1,1,0,0,0-.91-1c-1.69-.17-3.38-.37-5.06-.62-.72-.12-1-.31-1.19-.61a4.94,4.94,0,0,1-.36-2.13,61.53,61.53,0,0,1,.49-13.1,5.6,5.6,0,0,1,.54-1.77,2.37,2.37,0,0,1,1.64-.89c8-2.2,15.74-3.84,23.07-3.85A49.82,49.82,0,0,1,154.91,136.33Zm-27.47,8.09a3.52,3.52,0,0,0-.14,4.29,3,3,0,0,0,2,1.24,3.64,3.64,0,0,0,2.53-.86,3.56,3.56,0,0,0,.46-4.71,2.85,2.85,0,0,0-2.22-1.24,3.29,3.29,0,0,0-2.6,1.27Zm11.85-1.08a3.29,3.29,0,0,0-2.51,1.61,3.37,3.37,0,0,0-.48,3.25c1,2.2,4.28,2.17,5.6-.07a3.12,3.12,0,0,0,0-3,3,3,0,0,0-2.13-1.7A2.59,2.59,0,0,0,139.29,143.34Zm9.63.21a3.51,3.51,0,0,0-1,.11,3.2,3.2,0,0,0-2.26,3.44,3.38,3.38,0,0,0,1.21,2.31,3.5,3.5,0,0,0,2.88.62,3.1,3.1,0,0,0,2.32-2.28,3.22,3.22,0,0,0-.41-2.82,3.51,3.51,0,0,0-2.72-1.38Zm-19,1.62a.73.73,0,0,1,.64.37,1.64,1.64,0,0,1-.13,2c-.45.39-.73.43-.92.4a.83.83,0,0,1-.57-.41,1.55,1.55,0,0,1,0-1.81,1.59,1.59,0,0,1,1-.55Zm9.48.23a1.56,1.56,0,0,1,.67.63,1,1,0,0,1,.05,1.07,1.23,1.23,0,0,1-2,.28,1.9,1.9,0,0,1,.32-1.32,1.31,1.31,0,0,1,1-.67Zm10.57.74a1.85,1.85,0,0,1,.09,1.09.94.94,0,0,1-.78.81,1.3,1.3,0,0,1-1.19-.21,1.38,1.38,0,0,1-.46-.92c-.09-.92.24-1.14.76-1.28A1.6,1.6,0,0,1,150,146.14Z" transform="translate(-116.67 -132.38)"/><path class="cls-1" d="M174.27,137.13a1.16,1.16,0,0,1,.28-.7.92.92,0,0,1,.71-.31h6.82a1.16,1.16,0,0,1,.71.29.88.88,0,0,1,.37.72V148h11.42V137.13a1,1,0,0,1,.29-.71,1,1,0,0,1,.75-.3h6.73a1.42,1.42,0,0,1,.8.23.82.82,0,0,1,.35.74v32.15a.92.92,0,0,1-.3.75,1.17,1.17,0,0,1-.78.26h-6.8a1.09,1.09,0,0,1-.75-.26.94.94,0,0,1-.29-.75V156.18H183.16v13.06a.9.9,0,0,1-.31.74,1.25,1.25,0,0,1-.84.27h-6.75q-1,0-1-.9Zm62.87,32.73a1.57,1.57,0,0,1-.63.32,3.38,3.38,0,0,1-.63.07h-3.47a1.55,1.55,0,0,1-.71-.15,1.68,1.68,0,0,1-.51-.4,2.26,2.26,0,0,1-.34-.58,4.08,4.08,0,0,1-.23-.67l-.72-2.94a10.39,10.39,0,0,1-1,1.62,8.11,8.11,0,0,1-1.66,1.7,9.42,9.42,0,0,1-2.41,1.34,9,9,0,0,1-3.22.54,10.82,10.82,0,0,1-8.4-3.77,12.81,12.81,0,0,1-2.33-4.08,14.62,14.62,0,0,1-.83-5v-15a2,2,0,0,1,.38-1.32,1.48,1.48,0,0,1,1.2-.45h5.31a2.09,2.09,0,0,1,1.36.33,1.78,1.78,0,0,1,.37,1.3v15a4.22,4.22,0,0,0,.44,1.88,5.48,5.48,0,0,0,1.19,1.56,5.69,5.69,0,0,0,1.66,1.07,4.89,4.89,0,0,0,1.9.39,4.23,4.23,0,0,0,1.71-.39,6.32,6.32,0,0,0,1.63-1,5.43,5.43,0,0,0,1.23-1.54,3.76,3.76,0,0,0,.49-1.87V142.76a2.16,2.16,0,0,1,.15-.78,1.24,1.24,0,0,1,.44-.6,2.31,2.31,0,0,1,.57-.25,2.69,2.69,0,0,1,.61-.07h5.19a1.83,1.83,0,0,1,1.42.48,1.89,1.89,0,0,1,.44,1.29v25.72a1.66,1.66,0,0,1-.19.8,1.44,1.44,0,0,1-.54.58Zm26.68-3.18c-.41.42-.87.86-1.36,1.34a13.69,13.69,0,0,1-1.65,1.33,8.92,8.92,0,0,1-1.93,1,6,6,0,0,1-2.23.41,13.93,13.93,0,0,1-10.28-4.38,14.91,14.91,0,0,1-3-4.79,17,17,0,0,1,0-11.87,14.76,14.76,0,0,1,3-4.78,13.53,13.53,0,0,1,4.53-3.2,14.13,14.13,0,0,1,5.75-1.16A6.74,6.74,0,0,1,259,141a8.28,8.28,0,0,1,1.91.94,10.49,10.49,0,0,1,1.59,1.3c.48.48.93.95,1.36,1.41v-10.5a1.8,1.8,0,0,1,.45-1.24,1.7,1.7,0,0,1,1.35-.5h5.17a1.84,1.84,0,0,1,.63.12,2.23,2.23,0,0,1,.61.36,1.87,1.87,0,0,1,.45.55,1.52,1.52,0,0,1,.17.71v34.36q0,1.77-1.86,1.77h-4.51a1.71,1.71,0,0,1-.71-.12,1.16,1.16,0,0,1-.43-.33,3,3,0,0,1-.31-.55c-.1-.26-.22-.52-.34-.77l-.67-1.8Zm-13.21-11a8.38,8.38,0,0,0,.47,2.84,6.51,6.51,0,0,0,1.35,2.28,6.25,6.25,0,0,0,2.1,1.53,6.4,6.4,0,0,0,2.72.56,7.15,7.15,0,0,0,2.77-.53,6.86,6.86,0,0,0,2.26-1.46,7.18,7.18,0,0,0,2.21-4.9v-.32a7.33,7.33,0,0,0-.55-2.81,7.58,7.58,0,0,0-1.53-2.34,7.21,7.21,0,0,0-2.3-1.6,7,7,0,0,0-2.86-.58,6.26,6.26,0,0,0-2.72.58,6.38,6.38,0,0,0-2.1,1.6,7.22,7.22,0,0,0-1.35,2.34,8.37,8.37,0,0,0-.47,2.81Zm48.72,11c-.41.42-.87.86-1.37,1.34a13.58,13.58,0,0,1-1.64,1.33,8.92,8.92,0,0,1-1.93,1,6.08,6.08,0,0,1-2.23.41,13.93,13.93,0,0,1-10.29-4.38,14.91,14.91,0,0,1-3-4.79,17,17,0,0,1,0-11.87,14.76,14.76,0,0,1,3-4.78,13.73,13.73,0,0,1,4.53-3.2,14.22,14.22,0,0,1,5.76-1.16,6.83,6.83,0,0,1,2.31.37,8.69,8.69,0,0,1,1.91.94,10.41,10.41,0,0,1,1.58,1.3c.48.48.94.95,1.37,1.41v-10.5a1.8,1.8,0,0,1,.45-1.24,1.68,1.68,0,0,1,1.34-.5h5.17a1.84,1.84,0,0,1,.63.12,2,2,0,0,1,.61.36,1.6,1.6,0,0,1,.45.55,1.41,1.41,0,0,1,.17.71v34.36q0,1.77-1.86,1.77h-4.5a1.65,1.65,0,0,1-.71-.12,1.08,1.08,0,0,1-.43-.33,2.5,2.5,0,0,1-.31-.55c-.11-.26-.22-.52-.34-.77l-.67-1.8Zm-13.22-11a8.64,8.64,0,0,0,.48,2.84,6.64,6.64,0,0,0,1.34,2.28,6.35,6.35,0,0,0,4.83,2.09,7.15,7.15,0,0,0,2.77-.53,6.86,6.86,0,0,0,2.26-1.46,7.21,7.21,0,0,0,1.55-2.19A7.3,7.3,0,0,0,300,156v-.32a7.35,7.35,0,0,0-4.38-6.75,7,7,0,0,0-2.86-.58,6.27,6.27,0,0,0-2.73.58,6.38,6.38,0,0,0-2.1,1.6,7.2,7.2,0,0,0-1.34,2.34,8.13,8.13,0,0,0-.47,2.81Zm28.16-21.54a2.09,2.09,0,0,1,.36-1.24,1.49,1.49,0,0,1,1.27-.5h5.63a1.13,1.13,0,0,1,.48.12,1.68,1.68,0,0,1,.47.36,2,2,0,0,1,.37.55,1.67,1.67,0,0,1,.15.71v34.34a1.69,1.69,0,0,1-.49,1.32,1.84,1.84,0,0,1-1.28.45H315.9a1.57,1.57,0,0,1-1.27-.45,2.08,2.08,0,0,1-.36-1.32ZM353,166.75a15.49,15.49,0,0,1-4.55,2.91,13.88,13.88,0,0,1-5.36,1.05,15.66,15.66,0,0,1-10.87-4.33,15.44,15.44,0,0,1-3.35-4.8,14.34,14.34,0,0,1-1.24-6,15.49,15.49,0,0,1,1.89-7.47,15.12,15.12,0,0,1,2.21-3.05,13.9,13.9,0,0,1,2.91-2.38,14.72,14.72,0,0,1,3.49-1.54,14,14,0,0,1,4-.55,13.38,13.38,0,0,1,3.7.51,14.29,14.29,0,0,1,6.25,3.63,14.9,14.9,0,0,1,2.26,2.81,13.91,13.91,0,0,1,1.46,3.27,12.58,12.58,0,0,1,.51,3.57q0,1.2,0,2a2.14,2.14,0,0,1-.36,1.21,1.69,1.69,0,0,1-1.07.62,10.09,10.09,0,0,1-2.19.17H336.05a5.91,5.91,0,0,0,.93,2.46,6.08,6.08,0,0,0,1.62,1.58,6.64,6.64,0,0,0,2,.84,8.54,8.54,0,0,0,1.95.25,9.16,9.16,0,0,0,1.7-.17,14.06,14.06,0,0,0,1.69-.46,9.54,9.54,0,0,0,1.49-.67,5,5,0,0,0,1.1-.79,4.26,4.26,0,0,1,.63-.45,1,1,0,0,1,1.17.06,4.38,4.38,0,0,1,.7.59l2.44,2.76a1.76,1.76,0,0,1,.32.54,2.08,2.08,0,0,1,.07.5,1.27,1.27,0,0,1-.26.79,3,3,0,0,1-.59.58Zm-11.06-19.14a4.36,4.36,0,0,0-1.73.36,6.51,6.51,0,0,0-1.58.95,8.52,8.52,0,0,0-2.27,2.9h11.74a14.91,14.91,0,0,0-1-1.66,7.39,7.39,0,0,0-1.29-1.33,5.81,5.81,0,0,0-1.66-.9A6.75,6.75,0,0,0,341.91,147.61Z" transform="translate(-116.67 -132.38)"/></svg>